{"accessors" : [{"bufferView" : 0, "byteOffset" : 0, "componentType" : 5123, "count" : 24576, "type" : "SCALAR", "max" : [4224], "min" : [0]}, {"bufferView" : 1, "byteOffset" : 0, "componentType" : 5126, "count" : 4225, "type" : "VEC3", "max" : [12371.5009765625, 6244.9755859375, 2331.752685546875], "min" : [-12088.3515625, -5984.951171875, 406.5173034667969], "name" : "POSITION"}, {"bufferView" : 1, "byteOffset" : 12, "componentType" : 5126, "count" : 4225, "type" : "VEC3", "max" : [0.4795762896537781, 0.5406827926635742, 1.0000035762786865], "min" : [-0.47877755761146545, -0.5723539590835571, 0.7894904017448425], "name" : "NORMAL"}, {"bufferView" : 1, "byteOffset" : 24, "componentType" : 5126, "count" : 4225, "type" : "VEC2", "max" : [1.0000001192092896, 1], "min" : [-8.098238191145413E-10, -1.1920928955078125E-07], "name" : "TEXCOORD_0"}, {"bufferView" : 1, "byteOffset" : 32, "componentType" : 5126, "count" : 4225, "type" : "VEC2", "max" : [0.999388575553894, 0.9985771179199219], "min" : [0.0006313121411949396, 0.0008976459503173828], "name" : "TEXCOORD_1"}], "asset" : {"generator" : "Aspose.3D 25.11.0", "version" : "2.0"}, "buffers" : [{"uri" : "data:application/octet-stream;base64,", "byteLength" : 218160}], "bufferViews" : [{"buffer" : 0, "byteOffset" : 0, "byteLength" : 49152, "target" : 34963}, {"buffer" : 0, "byteOffset" : 49156, "byteLength" : 169000, "byteStride" : 40, "target" : 34962}], "cameras" : [{"perspective" : {"aspectRatio" : 1.5, "yfov" : 0.6911112070083618, "zfar" : 10000, "znear" : 10.000000149011612}, "type" : "perspective", "name" : "Camera"}], "images" : [{"uri" : "C:\\Users\\cakeb\\AppData\\Local\\Temp\\blender_a33176\\GOOGLE_SAT_WM.tif"}], "materials" : [{"name" : "rastMat", "pbrMetallicRoughness" : {"baseColorFactor" : [1, 1, 1, 1], "baseColorTexture" : {"index" : 0, "texCoord" : 0}, "metallicFactor" : 1, "roughnessFactor" : 1}, "emissiveFactor" : [1, 1, 1], "alphaMode" : "OPAQUE", "doubleSided" : false}], "meshes" : [{"primitives" : [{"attributes" : {"POSITION" : 1, "NORMAL" : 2, "TEXCOORD_0" : 3, "TEXCOORD_1" : 4}, "indices" : 0, "material" : 0, "mode" : 4}], "name" : "EXPORT_GOOGLE_SAT_WM.001"}], "nodes" : [{"camera" : 0, "matrix" : [-65.15581275167911, -44.527139154551755, -61.417049289096546, 0, -32.401349332924404, 89.5395728270982, -30.542085476036892, 0, 68.59207001076241, 8.666908834403258E-06, -72.76761921184276, 0, -1222243712, 495.8309326171875, 408589440, 1], "name" : "Camera"}, {"matrix" : [100, 0, 0, 0, 0, -1.6292067955264296E-05, -99.99999999999866, 0, 0, 99.99999999999866, -1.6292067955264296E-05, 0, 0, 0, 0, 1], "mesh" : 0, "name" : "EXPORT_GOOGLE_SAT_WM"}], "samplers" : [{"magFilter" : 9729, "minFilter" : 9729, "wrapS" : 33071, "wrapT" : 33071}], "scene" : 0, "scenes" : [{"nodes" : [0, 1]}], "textures" : [{"sampler" : 0, "source" : 0, "name" : "base_color_texture"}]}